<svg xmlns="http://www.w3.org/2000/svg" xmlns:xlink="http://www.w3.org/1999/xlink" width="363.251" height="464.968" viewBox="0 0 363.251 464.968">
  <defs>
    <linearGradient id="linear-gradient" x1="0.5" y1="0.892" x2="0.5" y2="0.065" gradientUnits="objectBoundingBox">
      <stop offset="0" stop-color="#e9edf8"/>
      <stop offset="0.572" stop-color="#e9edf8"/>
      <stop offset="1" stop-color="#2f5bea"/>
    </linearGradient>
  </defs>
  <g id="_x36_" transform="translate(-219.32 -69.114)">
    <path id="Path_2371" data-name="Path 2371" d="M999.548,436.62V539.437l7.232,1.251V436.62h-7.232Zm-9.671-.209q-2.024-.083-3.966-.125v18.679a2.124,2.124,0,0,0,.04.417,4.374,4.374,0,0,0-1.611,1.042,5.036,5.036,0,0,0-1.528,3.669,5.046,5.046,0,0,0,8.678,3.586,4.828,4.828,0,0,0,1.487-3.586,5.105,5.105,0,0,0-1.487-3.669,6.062,6.062,0,0,0-1.653-1.084,1.566,1.566,0,0,0,.04-.375V436.411ZM974.092,622.449v.375l.124-.125A.367.367,0,0,1,974.092,622.449Zm262.619,87.014v.042q1.24,1.417,2.355,2.96.248.334.455.667a28.264,28.264,0,0,1,2.314,4.67,90.448,90.448,0,0,1,2.81,8.631,28.85,28.85,0,0,1,1.24,7.838,4.917,4.917,0,0,1-2.893,4.629q-2.893,1.417-4.3-1a7.061,7.061,0,0,0-2.025-2.544,2.972,2.972,0,0,0-1.694-.667q-3.347-.249-3.348,3.044a6.938,6.938,0,0,0,3.43,6.087,9.995,9.995,0,0,0,6.447,1.418,12.687,12.687,0,0,0,3.678-.708,10.078,10.078,0,0,0,6.653-6.13,3.819,3.819,0,0,1,.207-.667,2.36,2.36,0,0,0,.124-.417,23.832,23.832,0,0,0,.537-10.549,29.547,29.547,0,0,0-.868-4.085,60.12,60.12,0,0,0-2.232-6.213q-.7-1.626-1.57-3.336-.744-1.71-1.694-3.5-.455-.835-.827-1.668l-.041-.041q-.661-1.292-1.24-2.5a56.791,56.791,0,0,1-3.843-9.131q.041-1.626-.041-3.46-.041-.835-.124-1.71-.413-5.921-1.281-12.383a153.6,153.6,0,0,0-3.182-16.011q-2.107-8.588-4.628-12.717-2.48-4.127-9.794-6.921t-8.472-12.591a33.233,33.233,0,0,1,.661-11.674l.785-2.877a1.515,1.515,0,0,1,.083-.208q.331-1,.785-2.293c.083-.222.166-.473.248-.751v-.041a.468.468,0,0,1,.041-.208l1.2-3.627q.372-1.126.744-2.293-1.281-1.71-7.728,2.752-6.405,4.378-7.108,3.961a17.884,17.884,0,0,0-3.926-1.168q-1.736-2.334-3.306-4.836a8.783,8.783,0,0,0-2.479-2.96q-.867-.418-2.314,1.792l-.248.417q-1.2,1.793-1.4,6.046l-.083.084q-7.108,6.42-3.843,11.924,3.182,5.546,5.95,6.421,2.687.791,1.736,7.3-.951,6.461-2.149,8.964a23.245,23.245,0,0,0-1.942,7.3q-.7,4.836.785,15.51,1.488,10.715,2.025,14.3.62,3.543,1.777,8.213a10.43,10.43,0,0,1,.248,3.878,8.9,8.9,0,0,1-.331,1.709,8.8,8.8,0,0,1-1.322,2.376q-2.562,3.378-.744,4.42a7.918,7.918,0,0,0,4.339.876q2.6-.168,7.273-5.129-2.025,4.169-2.728,5.379-.661,1.251,2.728,2.085,3.388.917,4.711-.751a12.3,12.3,0,0,0,2.066-3.418q.661-1.794,3.472-2,.867,0,1.777-.083a2.322,2.322,0,0,1,.454-.042.452.452,0,0,0-.165.083,4.032,4.032,0,0,0-.661.459.268.268,0,0,0-.206.208,2.743,2.743,0,0,0-.537,1.543,4.669,4.669,0,0,0,.5,2.418,4.975,4.975,0,0,0,1.57,1.834,14.189,14.189,0,0,0,6.033.793q4.008-.168,6.612-.375,2.6-.167,6.033-.584a4.333,4.333,0,0,0,1.074-.208Zm-131.578-60.289q-2.068-1.751-3.554-2.835-2.148-1.543-4.38-2.919a76,76,0,0,0-15.7-7.589q-8.513-.876-12.4,2.544a7.115,7.115,0,0,0-.993,1.042,10.027,10.027,0,0,0-2.107,6.547,15.382,15.382,0,0,0,.66,2.96,15.057,15.057,0,0,1,.62,2.877l-5.786,14.3v.042a12.012,12.012,0,0,1-5.992-6.046q-6.363-5.755-13.017-16.345-.455-.75-.867-1.5l-5.165-8.8a9.067,9.067,0,0,0-.62-1q-2.439-4.045-4.257-6.671-4.629-6.3-17.274-11.633-7.15-2.918-9.669-4.294h-.042l-.042-.042a30.421,30.421,0,0,1-8.388-6.3,24.014,24.014,0,0,0-10.167-.458,13.43,13.43,0,0,0-8.842,4.92,11.638,11.638,0,0,0-1.984,2.876,12.675,12.675,0,0,1,1.86,1.585q4.049,3.961,11.86,12.258,14.463,13.134,23.184,19.637,9.048,6.962,35.084,22.14,8.884,5.253,13.719,8.714,5.455-3.044,12.273-6.5,1.2-.709,3.43-2.085a13.5,13.5,0,0,1,3.926-1.585A133.735,133.735,0,0,0,1105.133,649.174Zm-68.268,20.931q-.455-.292-.951-.584-4.713-2.877-10.125-6.13-1.572-1-3.266-2.085.414.292.826.626l.826.584h.042l4.05,2.627q3.058,1.708,5.5,3.335Q1035.376,669.355,1036.865,670.105Z" transform="translate(-711.085 -276.03)" fill="#003151" fill-rule="evenodd"/>
    <path id="Path_2372" data-name="Path 2372" d="M1544.57,279.006q1.942.042,3.966.125,4.712.167,9.671.208h7.232a256.3,256.3,0,0,0,36.986-2.752q16.034-2.544,17.149-6.379v-.417a2.219,2.219,0,0,0-.166-.834l-11.818-73.589q-.579-3.127-14.217-5.337-3.843-.667-8.305-1.084a239.585,239.585,0,0,0-23.968-1.084,210.131,210.131,0,0,0-32.482,2.168q-13.678,2.21-14.174,5.337l-11.611,73.464a3.4,3.4,0,0,0-.413.667v.542q.743,3.835,17.149,6.546A218.006,218.006,0,0,0,1544.57,279.006Z" transform="translate(-1269.744 -118.75)" fill="#beebff" fill-rule="evenodd"/>
    <path id="Path_2373" data-name="Path 2373" d="M1152.649,914.1,1074.5,900.214V888.623a608.952,608.952,0,0,1-68.639-4.961q-38.432-4.754-59.674-19.888l-27.108,4.795q-19.01,3.377-.993,11.34,17.976,8.006,62.525,15.885h.124a853.531,853.531,0,0,0,89.55,11.091q5.247.375,10.167.709l63.8,11.09,111.081-19.346-24.588-4.294v5.295l-78.1,13.885Zm78.1-44.07v19.6L1245.671,887q19.092-3.419,1.115-11.382A131.461,131.461,0,0,0,1230.752,870.028ZM1112.358,607.774a2.6,2.6,0,0,1-.289.459q-13.431,20.3-24.465,18.387a50.679,50.679,0,0,1-3.306-8.8l-1.156-1.042a10.6,10.6,0,0,0-.084,2.669,22.766,22.766,0,0,0,.91,6.963q1.942,6,7.438,6,7.891,0,16.9-10.507a53.247,53.247,0,0,0,5.785-8.214q.537-1,.951-1.834A24.225,24.225,0,0,1,1112.358,607.774Zm8.223,84.763q0,4.586.249,9.007a23.056,23.056,0,0,1,7.232,1.125q1.818-10.131,3.677-20.388,4.256-23.39,4.256-33.563a35.367,35.367,0,0,0-5.621-19.888q-2.065-2.252-3.264-3.711a14.319,14.319,0,0,0-4.05,2.5,21.516,21.516,0,0,0-6.157,8.005,13.754,13.754,0,0,0-1.24,4.211,13.392,13.392,0,0,0,0,4.92,11.767,11.767,0,0,0,5.868,7.8,150.742,150.742,0,0,1-.082,19.971Q1120.457,687.45,1120.581,692.537Z" transform="translate(-690.002 -384.602)" fill="#dbe8f9" fill-rule="evenodd"/>
    <path id="Path_2376" data-name="Path 2376" d="M1075.731,502.923l-15.7-2.794a10.51,10.51,0,0,1-.7,1.126,7.252,7.252,0,0,1-3.388,2.668,1.024,1.024,0,0,1,.455.751v.291q-.372.668-2.521,1.293a5.73,5.73,0,0,1,1.694,2.126l13.017-2.293a8.319,8.319,0,0,1,.827-.875,7.747,7.747,0,0,1,5.5-2.043,8.017,8.017,0,0,1,4.132,1.042l1.984-.333Zm-57.772-.333q1.86,1.543,3.6,3.21h.042q.248-.124.454-.25-.868-.417-.992-.875v-.125q0-1.042,3.348-1.876l-.124-1.167Zm-92.69-65.042a32.79,32.79,0,0,1,5.868,9.965,12.451,12.451,0,0,0,1.322-1.167,11.943,11.943,0,0,0,3.431-8.547c0-.333-.015-.639-.042-.917a11.268,11.268,0,0,0-3.388-7.5,11.562,11.562,0,0,0-11.407-3.127,10.848,10.848,0,0,0-5.248,3.127q-.537.584-.991,1.167a28.1,28.1,0,0,1,4.05,2.085,41.334,41.334,0,0,1,5.785,4.211l.247.25A2.414,2.414,0,0,0,925.269,437.547ZM877.91,527.355q-1.695,4.086-7.563,11.8a19.263,19.263,0,0,0-2.851,7.088v.167a.119.119,0,0,1,.04.083,8.286,8.286,0,0,0,5.952,2.543,17.3,17.3,0,0,0,4.545-.917,26.287,26.287,0,0,1,7.852-.959,15.091,15.091,0,0,1,8.059,2.377,19.053,19.053,0,0,1,3.471,2.543q5.537,4.836,11.531,4.837a8.933,8.933,0,0,0,2.107-.25q3.968-.917,6.572-5.42,2.23-3.836,2.231-6.046-1.24-8.422-1.24-9.673a34.084,34.084,0,0,1,2.273-12.634,32.026,32.026,0,0,1,8.76-12.258q1.281-1.125,2.686-2.168a33.815,33.815,0,0,1,4.919-3q-.869-.542-1.613-.959l-2.273-1.376q-1.61-1-2.727-1.751A23.144,23.144,0,0,1,926.508,498a13.376,13.376,0,0,1-1.157-1.334q-.414.834-.951,1.834a53.249,53.249,0,0,1-5.785,8.214q-9.01,10.507-16.9,10.507-5.5,0-7.438-6a22.761,22.761,0,0,1-.91-6.963,10.614,10.614,0,0,1,.084-2.669l-1.2-1.167q-1.2.334-2.562.834-.7,1-1.446,2a47.25,47.25,0,0,0-3.968,6.713q-.908,1.793-1.693,3.794l-2.935,8.047a10.409,10.409,0,0,0-.371,1.459A37.545,37.545,0,0,0,877.91,527.355Zm1.735,49.991a22.475,22.475,0,0,1,.249,11.007,26.3,26.3,0,0,1-4.67,10.173,23.73,23.73,0,0,0,10.909,4.086,35.7,35.7,0,0,0,14.712-1.793q2.356-.708,7.6-2.836a30.193,30.193,0,0,0,1.695-9.173q0-9.3-3.968-15.3a21.6,21.6,0,0,0-10.5-8.3,43.1,43.1,0,0,0-12.356-2.376q-2.935-.25-6.365-.334a7.151,7.151,0,0,1,.331,4.337v.125q.288,1.125.538,2.168,1.239,4.962,1.693,7.463A2.352,2.352,0,0,1,879.645,577.346Zm158.315-68.628,2.976.5a6.639,6.639,0,0,1,1.116-1.584q-1.529.041-3.224.041h-.909q.042.5.041,1v.041ZM1034.7,701.3l6.405-1.125-7.645-1.376Q1034.035,700.009,1034.7,701.3Zm-149.512-1.042,77.772,13.8,31.593-5.587h.021l31.365-5.628-1.364-1.459a4.324,4.324,0,0,1-1.074.208q-3.43.418-6.033.584-2.6.209-6.612.375a14.189,14.189,0,0,1-6.034-.793,4.978,4.978,0,0,1-1.57-1.834,4.661,4.661,0,0,1-.5-2.418,2.74,2.74,0,0,1,.537-1.543.268.268,0,0,1,.207-.208,4.025,4.025,0,0,1,.661-.459.46.46,0,0,1,.165-.083,2.318,2.318,0,0,0-.454.041q-.909.083-1.777.083-2.81.209-3.472,2a12.293,12.293,0,0,1-2.066,3.418q-1.322,1.669-4.711.751-3.389-.835-2.728-2.085.7-1.209,2.728-5.378-4.67,4.962-7.273,5.129a7.911,7.911,0,0,1-4.339-.876q-1.818-1.043.744-4.42A8.812,8.812,0,0,0,982.3,691.5a8.907,8.907,0,0,0,.331-1.709L969.816,687.5v8.506q5.662,1.042,5.661,2.459v.208q-.331,1-4.174,1.918a14.9,14.9,0,0,0-1.529.292,79.323,79.323,0,0,1-14.092,1.083,93.334,93.334,0,0,1-13.885-.875q-.91-.209-1.613-.375-3.637-.834-4.173-1.75v-.292q0-1.626,5.785-2.668a.366.366,0,0,0,.165-.042v-5.045h-2.975a17.793,17.793,0,0,1-1.777-.083l-52.358,9.339Z" transform="translate(-500.309 -269.411)" fill="#ff5a72" fill-rule="evenodd"/>
    <path id="Path_2377" data-name="Path 2377" d="M1100.607,643.8l.042.042V643.8Zm10.828,12.258q1.4,1.835,2.686,3.794l1.323,2q3.305,5.045,6.364,10.006a7.218,7.218,0,0,1,2.728-.5,3.025,3.025,0,0,1,.5.041V658.475a6.6,6.6,0,0,1-4.877-3.753,8.69,8.69,0,0,1-.785-2.877,10.131,10.131,0,0,1-.083-1.459,7.211,7.211,0,0,1,.7-3.169l-2.976-.5a8.973,8.973,0,0,1-1.694,5.254,7.537,7.537,0,0,1-2.769,2.377q-.29.542-.62,1.084A3.539,3.539,0,0,1,1111.435,656.056Zm-69.426,196-77.773-13.8-.373-.083v84.847l78.146,13.884V852.058Z" transform="translate(-579.362 -407.409)" fill="#e63d5e" fill-rule="evenodd"/>
    <path id="Path_2378" data-name="Path 2378" d="M1040.82,907.035V864.382a10.078,10.078,0,0,1-6.653,6.13,12.694,12.694,0,0,1-3.678.708,9.994,9.994,0,0,1-6.447-1.418,6.937,6.937,0,0,1-3.43-6.087q0-3.294,3.348-3.044a2.976,2.976,0,0,1,1.694.667,7.06,7.06,0,0,1,2.025,2.544q1.4,2.418,4.3,1a4.917,4.917,0,0,0,2.893-4.629,28.85,28.85,0,0,0-1.24-7.838,90.255,90.255,0,0,0-2.81-8.631,28.228,28.228,0,0,0-2.314-4.67q-.207-.333-.454-.667-1.115-1.543-2.355-2.96l-31.448,5.629L962.716,846.7v84.931l78.1-13.885V907.035Zm10.538-236.987A7.687,7.687,0,0,1,1053.01,668a8.046,8.046,0,0,1,5.579-2,8.292,8.292,0,0,1,5.538,1.96,7.48,7.48,0,0,1,2.521,5.921,8.3,8.3,0,0,1-.785,3.5l15.042-2.71V648.951a7.278,7.278,0,0,1-6.323,3.168q-5.29,0-7.149-3.961a10.17,10.17,0,0,1-.7-2.835,10.494,10.494,0,0,1-.083-1.5,7.769,7.769,0,0,1,1.694-5.129l-13.017,2.293a8.464,8.464,0,0,1,.827,3.878,3.941,3.941,0,0,1-.041.543,9.382,9.382,0,0,1,1.24-.167,5.119,5.119,0,0,1,3.926,1.334,5.991,5.991,0,0,1,1.818,4.711,7.5,7.5,0,0,1-1.116,4.044,5.136,5.136,0,0,1-4.711,2.5,4.93,4.93,0,0,1-5.042-3.127,8.343,8.343,0,0,1-.578-2.209,7.875,7.875,0,0,1-3.6.792,12.136,12.136,0,0,1-2.314-.208V666a6.146,6.146,0,0,1,3.884,1.459A4.816,4.816,0,0,1,1051.358,670.048Zm-.827,5.212a.123.123,0,0,1-.041.084,5.646,5.646,0,0,1-1.86,1.667q.867,1.543,1.694,3.085l1.86-.291a6.834,6.834,0,0,1-.909-1.5,9.668,9.668,0,0,1-.7-2.793A.78.78,0,0,0,1050.531,675.259Zm30.25-38.775-1.984.333a11.2,11.2,0,0,1,1.322.917,10.4,10.4,0,0,1,.786.792v-2.085Zm-143.6,6.046a11.951,11.951,0,0,1,3.884-1.334,1.566,1.566,0,0,1,.62-.375l-2.933-1.751q-.869-.5-1.57-1h-.165a33.792,33.792,0,0,0-4.919,3q-1.4,1.043-2.686,2.168a32.029,32.029,0,0,0-8.76,12.258,34.082,34.082,0,0,0-2.273,12.634q0,1.251,1.24,9.673,0,2.21-2.231,6.046-2.606,4.5-6.572,5.42a8.937,8.937,0,0,1-2.107.25q-5.993,0-11.531-4.837a19.1,19.1,0,0,0-3.47-2.543,15.093,15.093,0,0,0-8.059-2.377,26.289,26.289,0,0,0-7.852.959,17.3,17.3,0,0,1-4.545.917A8.287,8.287,0,0,1,867.3,679.1a.119.119,0,0,0-.04-.083,10.465,10.465,0,0,0,.62,5.3.5.5,0,0,0,.124.375.109.109,0,0,0,.122.125,5.626,5.626,0,0,0,.455,1.459.037.037,0,0,1,.042.041h.123a6.363,6.363,0,0,0,1.613,2.209q.123.125,1.322,1.126.743.751,2.066,1.876a.354.354,0,0,0,.249.125,13.966,13.966,0,0,1,2.23,2.46l.5,1q3.431.084,6.365.334a43.1,43.1,0,0,1,12.356,2.376,21.6,21.6,0,0,1,10.5,8.3q3.968,6,3.968,15.3a30.2,30.2,0,0,1-1.695,9.173,16.18,16.18,0,0,0,1.571-.625l3.679-1.459a8.723,8.723,0,0,1,1.116-.375,78.134,78.134,0,0,1,11.653-3.961,63.23,63.23,0,0,1,4.421-14.218q-.124-5.086.869-20.013a150.9,150.9,0,0,0,.082-19.971,11.767,11.767,0,0,1-5.868-7.8,13.389,13.389,0,0,1,0-4.92,13.76,13.76,0,0,1,1.24-4.211,21.513,21.513,0,0,1,6.157-8.005A14.274,14.274,0,0,1,937.177,642.53Zm113.23-5.129a6.584,6.584,0,0,1,3.223,1.459q2.149-.625,2.521-1.293v-.291a1.023,1.023,0,0,0-.454-.751,8.912,8.912,0,0,1-2.934.459q-.5,0-.951-.042A9.273,9.273,0,0,1,1050.407,637.4Zm-12.728,2.877h.909q1.694,0,3.224-.041.331-.334.7-.667a9.108,9.108,0,0,1,1.86-1.251q-2.644.167-5.785.167h-.207a5.527,5.527,0,0,1-.992.5A5.978,5.978,0,0,1,1037.679,640.279Zm-13.513-5q-3.348.834-3.348,1.876v.125q.125.458.992.875.248-.167.455-.292a7.115,7.115,0,0,1,1.818-2.377.48.48,0,0,1,.124-.083Zm16.654,213.389V832.82l-6.323,1.125q.372.834.827,1.668.95,1.793,1.694,3.5.868,1.709,1.57,3.336A60.144,60.144,0,0,1,1040.82,848.664Z" transform="translate(-500.069 -402.013)" fill="#bb355a" fill-rule="evenodd"/>
    <path id="Path_2379" data-name="Path 2379" d="M1001.193,774.267q-3.429,1.917-6.405,3.71-11.24,6.921-14.422,11.507a77.936,77.936,0,0,1-19.382,1.876q-6.2.125-13.884-.375-3.472-.209-7.232-.542-8.927-.792-19.589-2.336-25.124-3.5-28.059-26.433a17.5,17.5,0,0,0-6.488,10.257q-4.753,18.345-4.05,33.48,89.343,28.977,154.223,31.813V805.87l.373.083-.331-.083,52.358-9.339q-7.4-.793-7.563-8.8v-7.8q0-9.464,9.34-9.464h2.975v-1.251q0-1.126,4.05-1.835a38.762,38.762,0,0,1,3.926-.5,6.9,6.9,0,0,1-1.447-4.336,11.08,11.08,0,0,0-2.4-7.464c-.137-.055-.289-.112-.455-.167a33.037,33.037,0,0,1-9.008-5.545,20.916,20.916,0,0,1-6.447-10.09v-.041q-2.935-9.59.784-16.093a18.5,18.5,0,0,1,1.531-2.21,36.34,36.34,0,0,1,7.439-7.672c.164-.111.329-.222.5-.333l.04-.041q2.15-1.5,6.365-4.086,1.693-1,3.76-2.252a7.478,7.478,0,0,0,3.844-6.421q-.083-3.918-4.257-6.254l-.041-.042-1.653-1q-1.941-1.21-3.679-2.459h21.655q.413.791.744,1.583a18.581,18.581,0,0,1,1.364,8.881,20.865,20.865,0,0,1-10.786,18.011q-6.571,3.879-9.339,5.837h-.083a25.228,25.228,0,0,0-4.628,4.92q-1.075,2.084-.042,5.378,1.612,4.086,6.86,6.546a11.374,11.374,0,0,1,5.7,3.627q6.446,6.672,6.364,17.47a6.872,6.872,0,0,1-1.364,4.211,41.044,41.044,0,0,1,4.5.542,9.963,9.963,0,0,1,3.554,1.084c.331.194.5.4.5.625v24.1l12.811,2.293a10.433,10.433,0,0,0-.248-3.878q-1.157-4.67-1.777-8.213-.538-3.586-2.025-14.3-1.487-10.674-.785-15.51a23.239,23.239,0,0,1,1.942-7.3q1.2-2.5,2.149-8.964.95-6.5-1.736-7.3-2.768-.876-5.951-6.421-3.264-5.5,3.843-11.924l.083-.084q.206-4.252,1.4-6.046.125-.208.248-.417,1.446-2.21,2.314-1.792a8.776,8.776,0,0,1,2.479,2.96q1.57,2.5,3.306,4.836a17.89,17.89,0,0,1,3.926,1.168q.7.417,7.108-3.961,6.447-4.462,7.728-2.752-.373,1.167-.744,2.293l-1.2,3.627a.471.471,0,0,0-.041.208v.041q-.125.417-.248.751-.454,1.292-.785,2.293a1.55,1.55,0,0,0-.083.208l-.785,2.877a33.239,33.239,0,0,0-.661,11.674q1.157,9.8,8.472,12.591t9.794,6.921q2.52,4.127,4.628,12.716a153.37,153.37,0,0,1,3.182,16.011q.868,6.463,1.281,12.383,45.871-34.271,46.449-55.161a173.711,173.711,0,0,0-8.141-41.861q-.868-1.167-1.818-2.419-.413-.626-.827-1.167a7.546,7.546,0,0,1-5.207,1.876q-5.207,0-7.149-4a9.411,9.411,0,0,1-.827-2.836,11.955,11.955,0,0,1-.083-1.46,8.934,8.934,0,0,1,.124-1.542,8.552,8.552,0,0,1-3.1.5q-4.216,0-5.7-3.086-.537-2.959-.537-2.752a5.323,5.323,0,0,1,1.983-4.336,6.617,6.617,0,0,1,4.339-1.459,6.439,6.439,0,0,1,2.686.543q-4.133-5.712-6.406-8.756-1.487-2.044-2.149-2.919l-.289-.292a61.5,61.5,0,0,0-7.645-7q-5.166-4.211-13.265-10.173-4.256-3.127-11.075-8.047-9.3-6.754-23.307-16.845-8.017-5.92-14.546-10.965,4.545,6.587,5.661,18.887a521.39,521.39,0,0,1-29.63,57.412q-3.761,6.254-7.645,12.091-2.521,3.835-5.123,7.546-4.093,5.838-8.265,11.257-.992,1.293-2.066,2.668-2.729,3.419-5.5,6.713-5.455,6.38-11.034,12.05a181.72,181.72,0,0,1-15,13.592,133.808,133.808,0,0,1-24.63,15.843c-.164.084-.331.167-.5.25q-3.6,1.752-6.86,3.419Q1006.649,771.224,1001.193,774.267Zm8.058-79.635q4.133-2.044,9.96-5.17a7.859,7.859,0,0,1,2.726-1.251q.952-.25,2.893-.584,3.1-1,2.728-4.461v-.625q.165-3.794.456-6.671-2.15,2.334-4.3,4.628Q1016.732,687.836,1009.251,694.631Zm106.618-95.186q-4.3-3.586-7.687-6.671a36.338,36.338,0,0,1-7.686,3.669q-10.042,3.5-14.959.125.124-.334.247-.626a39.946,39.946,0,0,0-8.181,7.755,23.14,23.14,0,0,0,4.132,3.377q1.114.751,2.727,1.751l2.273,1.376a57.233,57.233,0,0,1,10.456-7.588Q1108.1,596.61,1115.87,599.445Zm90.708,76.883q-.124-.208-.206-.375v.542A1.373,1.373,0,0,1,1206.577,676.328Zm5.042,21.973a6.448,6.448,0,0,1,4.381,1.542,5.531,5.531,0,0,1,1.984,4.461,5.4,5.4,0,0,1-1.323,3.461,5.981,5.981,0,0,1-5.083,2.293q-4.3,0-5.785-3.169a17.445,17.445,0,0,0-.579-2.585,5.531,5.531,0,0,1,1.984-4.461A6.6,6.6,0,0,1,1211.619,698.3Zm-118.561,92.6V776.184h-2.975q-3.678,0-3.679,3.752v7.589q.167,3.376,3.679,3.377h2.975Zm20.993,28.893,31.531-5.587a.174.174,0,0,1,.062-.043l-31.593,5.587Z" transform="translate(-651.404 -375.105)" fill="#2f5bea" fill-rule="evenodd" opacity="0.547"/>
    <path id="Path_2380" data-name="Path 2380" d="M1003.817,768.747q-6.407-.21-12.895-.375-3.1.708-7.272,1.668-9.548,2.085-15.828.751a16.124,16.124,0,0,1-8.6-4.586q-.62-.625-1.158-1.251-2.438-.668-4.875-1.376-.787-.251-1.57-.543-15.662-5.712-9.712-24.557L903.976,753.9q2.934,22.931,28.059,26.433,10.664,1.543,19.589,2.336,3.76.333,7.232.541,7.686.5,13.884.375a77.944,77.944,0,0,0,19.382-1.876q3.182-4.586,14.422-11.507Q1005.1,769.413,1003.817,768.747ZM1229.449,681.9q-.206-.667-.455-1.334a15.453,15.453,0,0,1-1.033,1.251q.413.541.826,1.167.951,1.251,1.818,2.419Q1230.069,683.649,1229.449,681.9ZM1119.938,585q3.388,3.085,7.687,6.671h.041v.041q.5.167.992.375l2.686,1.543c.11.083.207.153.289.208q.662.5,1.281,1.042a.474.474,0,0,1,.124.083l2.4,2.794a1.75,1.75,0,0,1,.331.459l.042.041q6.53,5.045,14.547,10.965,14.009,10.09,23.307,16.845,6.819,4.919,11.075,8.047,8.1,5.962,13.266,10.173a61.464,61.464,0,0,1,7.645,7l.289.292q.661.875,2.149,2.919,2.273,3.043,6.406,8.756a5.42,5.42,0,0,1,1.612.917,5.2,5.2,0,0,1,2.025,4q.082.167.207.375a9.01,9.01,0,0,1,5.661-1.084q-4.339-10.3-9.918-20.763a11.261,11.261,0,0,0-.661-1.293q-.826-1.543-1.694-3.085a7.2,7.2,0,0,1-3.431.751q-4.3,0-5.785-3.294a13.01,13.01,0,0,0-.578-2.585,5.37,5.37,0,0,1,2.024-4.42,6.281,6.281,0,0,1,1.653-1q-3.057-4.962-6.364-10.006l-1.323-2q-1.281-1.959-2.686-3.794a7.3,7.3,0,0,1-5.909,2.626q-5.372,0-7.232-3.961a9.384,9.384,0,0,1-.744-2.877,10.14,10.14,0,0,1-.083-1.459,7.635,7.635,0,0,1,2.479-6,6.712,6.712,0,0,1,.7-.542l-.042-.042q-1.735-1.668-3.6-3.21-21.324-17.845-52.9-19.888-1.074-.084-2.231-.125A38.652,38.652,0,0,1,1119.938,585Z" transform="translate(-663.16 -367.334)" fill="#a0b4f7" fill-rule="evenodd"/>
    <path id="Path_2381" data-name="Path 2381" d="M929.133,756.192q-5.952,18.845,9.712,24.557.784.292,1.57.543,2.438.708,4.875,1.376a12.475,12.475,0,0,1-1.115-1.751l-.826-1.835-.413-1.918a10.051,10.051,0,0,1-.04-2.043,8.1,8.1,0,0,1,4.668-6.17q.745-.418,7.563-2.96-16.239-12.383-16.363-12.508-.746-.542-1.57-1.085Q933.223,754.314,929.133,756.192ZM906.569,864.22q21.239,15.134,59.674,19.888a608.836,608.836,0,0,0,68.639,4.961v-41.9q-64.877-2.835-154.223-31.813,1.281,29.27,22.853,46.488Q905,863.052,906.569,864.22Zm319.4-119.244q-.578,20.889-46.449,55.161.082.876.124,1.71.082,1.833.041,3.46a56.827,56.827,0,0,0,3.843,9.131l7.645,1.376-6.405,1.125.041.041,6.323-1.125V831.7a29.419,29.419,0,0,1,.868,4.085,23.828,23.828,0,0,1-.537,10.549q23.8-23.432,31.7-60.873.62-3.127,1.157-6.254A147.7,147.7,0,0,0,1225.968,744.976Zm-126.908-52.7a521.392,521.392,0,0,0,29.63-57.412q-1.116-12.3-5.661-18.887l-.041-.041a1.739,1.739,0,0,0-.331-.459l-2.4-2.794a.486.486,0,0,0-.124-.083q-.62-.543-1.281-1.042-.124-.084-.289-.208l-2.686-1.543q-.5-.209-.992-.375v-.041h-.041q-7.77-2.835-18.679,3.168a57.238,57.238,0,0,0-10.456,7.588q.743.417,1.613.959h.165q.7.5,1.571,1l2.933,1.751a1.469,1.469,0,0,0,.373.25q7.934,2.21,10.661,10.965a32.631,32.631,0,0,1,.248,16.344,279.236,279.236,0,0,0-3.678,29.811ZM1076.538,707.2q2.727.375,3.926-1.126a1.432,1.432,0,0,0,.371-.458,5.683,5.683,0,0,0,.373-3.627q-.25-4.421-.249-9.007A63.234,63.234,0,0,0,1076.538,707.2Zm68.02,116.951,31.448-5.629v-.042l-31.366,5.628h-.021A.174.174,0,0,0,1144.558,824.152ZM986.7,784.418a83.385,83.385,0,0,0-8.555,1.668q6.489.166,12.894.375A41.076,41.076,0,0,0,986.7,784.418Z" transform="translate(-650.381 -385.048)" fill="#0e2b89" fill-rule="evenodd" opacity="0.786"/>
    <path id="Path_2382" data-name="Path 2382" d="M1235.473,433.212q19.465,1.918,28.763,20.763a92.017,92.017,0,0,1,5.289,14.551q.454-1.334.826-2.71l.992-9.423q0-2.419-.124-5.3-.124-1.459-.248-3.127-1.942-18.762-29.547-27.685-1.736-.125-3.306-.25-3.307,0-6.53.125a35.818,35.818,0,0,0-10.911,2.418,11.828,11.828,0,0,1,14.795,10.632Zm-67.359,24.057q14.216-11.382,26.861-20.388,9.3-6.712,16.53-11.174a37.485,37.485,0,0,0-8.1-1.834q-12.853-1.459-22.316,5.462a50.21,50.21,0,0,0-9.051,11.466A28.878,28.878,0,0,0,1168.114,457.269Zm62.649-13.425a32.778,32.778,0,0,0-5.868-9.965,24.066,24.066,0,0,0-2.233,2q-4.09,3.878-6.943,7.088-6.57,7.3-6.57,10.757,0,7.755,8.472,9.757,3.6.834,14.339,1.459.25-1.835.909-5.92.5-4.086-1.033-11.382a12.829,12.829,0,0,0-.329-1.293A21.861,21.861,0,0,0,1230.763,443.844Zm-15.332,33.48q.743.5,1.612,1A2.707,2.707,0,0,0,1215.431,477.324Z" transform="translate(-799.936 -265.743)" fill="#9a1e54" fill-rule="evenodd"/>
    <path id="Path_2383" data-name="Path 2383" d="M1233.459,453.628a21.867,21.867,0,0,1,.744,2.5q11.073,18.762,2.809,40.235-.124.292-.247.626,4.918,3.377,14.959-.125a36.356,36.356,0,0,0,7.686-3.669,38.78,38.78,0,0,0,5.744-4.5,34,34,0,0,0,3.471-3.711,21.955,21.955,0,0,0,4.422-9.381q-.372,1.376-.826,2.71a92,92,0,0,0-5.289-14.551q-9.3-18.845-28.762-20.763c.027.278.042.584.042.917a11.942,11.942,0,0,1-3.431,8.547A12.424,12.424,0,0,1,1233.459,453.628ZM1214.2,435.491q-7.233,4.462-16.53,11.174-12.644,9.006-26.861,20.388a15.5,15.5,0,0,0,5.042,11.549,1.752,1.752,0,0,0,.868.459,7.823,7.823,0,0,1,5.537-5.42,34.867,34.867,0,0,0,16.861-10.924q.373,1.168.786,2.335a31.017,31.017,0,0,0,3.015,6.587,54.9,54.9,0,0,0,4.05,5.712,59.61,59.61,0,0,0,11.158,9.756,2.71,2.71,0,0,1,1.613,1,9.2,9.2,0,0,1,2.334.875,7.367,7.367,0,0,0,3.161.626q4.924-1.495,5.332-3,3.719-7.3,4.09-11.883-10.743-.625-14.339-1.459-8.473-2-8.472-9.757,0-3.46,6.57-10.757,2.852-3.211,6.943-7.088a24.077,24.077,0,0,1,2.233-2,2.444,2.444,0,0,1-.373-.459l-.247-.25a41.333,41.333,0,0,0-5.786-4.211,28.047,28.047,0,0,0-4.05-2.085Q1215.729,436.033,1214.2,435.491Z" transform="translate(-802.632 -275.527)" fill="#640a31" fill-rule="evenodd"/>
    <path id="Path_2384" data-name="Path 2384" d="M1517.307,901.238a14.143,14.143,0,0,1,1.364-3.252,11.633,11.633,0,0,1,1.984-2.876,13.43,13.43,0,0,1,8.843-4.92,24.014,24.014,0,0,1,10.167.458,30.414,30.414,0,0,0,8.388,6.3l-.123-.083a37.782,37.782,0,0,1-4.876-3.127,24.55,24.55,0,0,1-3.388-3.127,24.192,24.192,0,0,0-10.208-.458,13.4,13.4,0,0,0-8.8,4.919A13.569,13.569,0,0,0,1517.307,901.238Zm.289,8.588v-.25l-.247-.667Zm67.525,19.555q.412.75.867,1.5,6.654,10.59,13.017,16.345v-.042q-6.363-5.754-13.017-16.344C1585.714,930.34,1585.424,929.853,1585.121,929.381Z" transform="translate(-1254.589 -563.158)" fill="#9e7c5c" fill-rule="evenodd"/>
    <path id="Path_2385" data-name="Path 2385" d="M1253.427,530.255A173.919,173.919,0,0,0,1273.842,521q2.025-1.168,3.966-2.377a31.018,31.018,0,0,1-3.015-6.587q-.414-1.168-.786-2.335a34.868,34.868,0,0,1-16.861,10.924,7.823,7.823,0,0,0-5.537,5.42Zm18.39,25.475a50.679,50.679,0,0,0,3.306,8.8q11.034,1.918,24.465-18.387a2.579,2.579,0,0,0,.289-.459A1.849,1.849,0,0,0,1300,544.6q-.085-.751.123-8.005a7.358,7.358,0,0,1-3.161-.626,9.2,9.2,0,0,0-2.335-.875,34.648,34.648,0,0,1-8.968,13.092A30.907,30.907,0,0,1,1271.816,555.73Zm41.616,93.644q2.6-3.711,5.123-7.546a2.726,2.726,0,0,0-.289-.167,3.8,3.8,0,0,0-.5-.208,21.5,21.5,0,0,0-2.19-.876,23.046,23.046,0,0,0-7.232-1.125,5.682,5.682,0,0,1-.373,3.627q.746.708,1.571,1.585A27.523,27.523,0,0,1,1313.432,649.373ZM1303.1,663.3q1.073-1.375,2.066-2.668-2.4,1.752-4.05,3.086.62-.124,1.115-.25Z" transform="translate(-877.521 -322.51)" fill="#ed9870" fill-rule="evenodd"/>
    <path id="Path_2386" data-name="Path 2386" d="M1302.889,568.918l1.2,1.167,1.156,1.042a30.909,30.909,0,0,0,13.844-7.546,34.651,34.651,0,0,0,8.968-13.092q-.869-.5-1.612-1a59.616,59.616,0,0,1-11.158-9.756,54.875,54.875,0,0,1-4.05-5.712q-1.942,1.21-3.966,2.377a173.912,173.912,0,0,1-20.416,9.256Q1293.22,560.12,1302.889,568.918Zm16.2,97.563q-5.247,2.127-7.6,2.836a35.7,35.7,0,0,1-14.712,1.793,23.731,23.731,0,0,1-10.909-4.086,103.429,103.429,0,0,0-12.148-.292,12.952,12.952,0,0,0-6.447,2.126q.332,1.5-1.4,1.167h-.042l-.083.084c.192.555.179.944-.042,1.167A8.3,8.3,0,0,1,1269,672.86l6.488,5.086a110.434,110.434,0,0,0,10.869,3.753c.386.112.759.222,1.115.334a32.593,32.593,0,0,0,12.151,1.376,88.085,88.085,0,0,1,17.894-2.961q6.487-.5,10.745-.75,4.048-.375,6.281-.584,1.651-1.333,4.05-3.085,4.172-5.42,8.265-11.257a27.5,27.5,0,0,0-3.886-4.711q-.825-.876-1.571-1.585a1.425,1.425,0,0,1-.371.458q-1.2,1.5-3.926,1.126a78.144,78.144,0,0,0-11.653,3.961,8.775,8.775,0,0,0-1.116.375l-3.679,1.459A16.26,16.26,0,0,1,1319.088,666.48Z" transform="translate(-910.949 -337.907)" fill="#ffaa83" fill-rule="evenodd"/>
    <path id="Path_2387" data-name="Path 2387" d="M1249.987,650.64a1.471,1.471,0,0,1-.373-.25,1.567,1.567,0,0,0-.62.375A4.071,4.071,0,0,1,1249.987,650.64Z" transform="translate(-808.002 -411.583)" fill="#d3d727" fill-rule="evenodd"/>
    <path id="Path_2388" data-name="Path 2388" d="M1221.484,635.332a14.862,14.862,0,0,0-2.935,5.837,1.121,1.121,0,0,0-.125.5v.292a1.41,1.41,0,0,0-.124.626.513.513,0,0,0-.123.375.87.87,0,0,0-.125.459,1.406,1.406,0,0,0-.124.626l-.371,9.506a11.64,11.64,0,0,0,.123,1.71q.125,1.167.249,2.251a37.288,37.288,0,0,1,1.364-4.086,10.459,10.459,0,0,1,.371-1.459l2.935-8.047q.784-2,1.694-3.794a47.228,47.228,0,0,1,3.968-6.712q.743-1,1.446-2a4.9,4.9,0,0,0-1.571.25A11.267,11.267,0,0,0,1221.484,635.332Zm-4.546,65q-.291,2.877-.456,6.671v.625l3.182-.125a2.339,2.339,0,0,0-.124-.75q-.453-2.5-1.693-7.463-.249-1.042-.538-2.168Q1217.1,698.54,1216.939,700.333Zm64.424,18.554q3.883-5.837,7.645-12.091l.537-11.049a279.262,279.262,0,0,1,3.678-29.811,32.628,32.628,0,0,0-.248-16.344q-2.727-8.756-10.661-10.965a4.052,4.052,0,0,0-.993.125,11.951,11.951,0,0,0-3.884,1.334q1.2,1.459,3.264,3.711a35.366,35.366,0,0,1,5.621,19.888q0,10.174-4.257,33.563-1.859,10.257-3.677,20.388a21.334,21.334,0,0,1,2.19.876,3.853,3.853,0,0,1,.5.208A2.829,2.829,0,0,1,1281.363,718.887Z" transform="translate(-840.329 -399.569)" fill="#bfd1ea" fill-rule="evenodd"/>
    <path id="Path_2389" data-name="Path 2389" d="M1185.242,923.035l.247.667a.366.366,0,0,0,.124.25l-.124.125a16.86,16.86,0,0,0,7.976,10.548,175.315,175.315,0,0,1,15.828,10.006q.826.541,1.571,1.084.124.124,16.363,12.508h.042l4.917,3.252a10.815,10.815,0,0,0,1.489.959.649.649,0,0,0,.165.125h.083q1.694,1.085,3.266,2.085,5.414,3.253,10.124,6.13.5.292.951.584,6.281,3.128,7.81,4.086h.042l2.686,1.209a40.994,40.994,0,0,1,4.339,2.043q1.281.667,2.726,1.459,2.976-1.793,6.406-3.71-4.835-3.461-13.72-8.714-26.034-15.176-35.084-22.14-8.72-6.5-23.184-19.637-7.811-8.3-11.86-12.258a12.627,12.627,0,0,0-1.86-1.585,14.162,14.162,0,0,0-1.364,3.252l-.413,3.627.331,3.461a3.319,3.319,0,0,1,.125.5C1185.242,922.978,1185.242,923.007,1185.242,923.035Zm157.322,1.751q2.768-3.293,5.5-6.713l-.869.167q-.5.124-1.115.25-2.233.209-6.281.584.62,1.293,1.9,3.377Q1342.152,923.577,1342.565,924.785Zm30.291,45.113q-.826.125-1.612.25-2.809.5-2.811,1.125,0,.584.992.833.95.25,2.768.626,1.776.25,5.951.375a29.787,29.787,0,0,0,6.694-.625q.744-.125,1.281-.25,1.57-.375,1.694-.959-.124-.626-2.976-1.251a19.233,19.233,0,0,0-2.066-.25.12.12,0,0,0-.083.042,6.733,6.733,0,0,1-4.959,2.085A6.911,6.911,0,0,1,1372.856,969.9Zm-13.472,28.81q.826.083,1.777.083h2.975V993.08h-2.975q-3.513,0-3.679-3.377v-7.589q0-3.752,3.679-3.753h2.975V972.65h-2.975q-9.339,0-9.341,9.464v7.8Q1351.986,997.916,1359.384,998.709Zm-42.853-48.281a181.78,181.78,0,0,0,15-13.592l-14.961-8.339q-1.114-.5-2.231-.959a61.5,61.5,0,0,0-20.5-4.795q-1.819-.083-3.635-.041-2.647.083-5.166.375l-5.538.751a19.63,19.63,0,0,0-10.909,10.548q-.661,1.46-1.157,2.919-.246.792-.455,1.626l-.5,4.795.744,5.212c.083.277.165.528.249.751a4.47,4.47,0,0,1,.247.917l.331,2.919a12.07,12.07,0,0,1-.083,1.959,1.66,1.66,0,0,0-.125.459l-.951,5.378v.042a12.01,12.01,0,0,0,5.992,6.046v-.042l5.786-14.3a15.072,15.072,0,0,0-.62-2.877,15.393,15.393,0,0,1-.66-2.96,10.028,10.028,0,0,1,2.106-6.547,7.134,7.134,0,0,1,.993-1.042q3.884-3.42,12.4-2.544a76,76,0,0,1,15.7,7.589q2.23,1.375,4.38,2.919Q1314.465,948.675,1316.531,950.427Z" transform="translate(-922.482 -577.283)" fill="#00558c" fill-rule="evenodd"/>
    <path id="Path_2390" data-name="Path 2390" d="M1448.554,891.995a24.589,24.589,0,0,0,3.388,3.127,37.8,37.8,0,0,0,4.876,3.127l-7.729-6.129A3.059,3.059,0,0,1,1448.554,891.995Zm59.879,32.563-20.207-3.585a8.954,8.954,0,0,1,.62,1l5.165,8.8c.3.473.593.959.867,1.459q6.654,10.591,13.017,16.344l.951-5.378a1.637,1.637,0,0,1,.125-.459,12.069,12.069,0,0,0,.083-1.959l-.331-2.919a4.456,4.456,0,0,0-.247-.917q-.125-.334-.249-.751l-.744-5.212.5-4.795Q1508.186,925.349,1508.433,924.558Zm24.464,28.977a13.508,13.508,0,0,0-3.925,1.584q-2.23,1.375-3.431,2.085,3.266-1.669,6.86-3.419C1532.566,953.7,1532.732,953.619,1532.9,953.535Z" transform="translate(-1163.478 -564.547)" fill="#001522" fill-rule="evenodd"/>
    <path id="Path_2391" data-name="Path 2391" d="M1421.031,862.992a.121.121,0,0,1,.042.084l.083-.084Zm-1.984-10.09,3.348,8.256c.083.25.152.473.207.667a12.954,12.954,0,0,1,6.447-2.126,103.41,103.41,0,0,1,12.148.292,26.308,26.308,0,0,0,4.67-10.173,22.471,22.471,0,0,0-.249-11.007l-3.182.125q.374,3.461-2.728,4.461-1.943.333-2.893.584a7.863,7.863,0,0,0-2.726,1.251q-5.829,3.128-9.96,5.171-1.117.542-2.067,1.042Q1420.578,852.193,1419.047,852.9Z" transform="translate(-1066.283 -530.875)" fill="#ce7c56" fill-rule="evenodd"/>
    <path id="Path_2392" data-name="Path 2392" d="M1309.225,926.314l6.778,5.378q1.9.083,3.843.292a65,65,0,0,1,16.653,4.5q1.157.46,2.273,1l14.961,8.339q5.579-5.671,11.033-12.05-.414-1.21-.868-2.334-1.281-2.086-1.9-3.377-4.257.25-10.745.75a88.088,88.088,0,0,0-17.894,2.961,32.59,32.59,0,0,1-12.151-1.376c-.356-.112-.73-.222-1.115-.334A110.3,110.3,0,0,1,1309.225,926.314Z" transform="translate(-944.683 -586.275)" fill="#1771ac" fill-rule="evenodd"/>
    <path id="Path_2393" data-name="Path 2393" d="M1380.709,940.975l.04.042a61.491,61.491,0,0,1,20.5,4.795q1.117.46,2.231.959-1.114-.542-2.273-1a65,65,0,0,0-16.653-4.5Q1382.608,941.059,1380.709,940.975Z" transform="translate(-1009.389 -595.557)" fill="#ceab8b" fill-rule="evenodd"/>
    <path id="Path_2394" data-name="Path 2394" d="M1574.862,1057.9a83.379,83.379,0,0,1,8.555-1.668l-2.686-1.209q-4.051,2.543-7.481.959a5.374,5.374,0,0,1-2.19-1.794l-1.281-4.878q-2.439-1.626-5.5-3.335l.66,4.794a7.188,7.188,0,0,1,.207.75c.027.194.069.431.125.709l.827,3q.249.708.537,1.626-5.206.5-7.852-4.837c-.192-.361-.359-.7-.5-1l-.662-2.919.662-2.543a7.926,7.926,0,0,1,1.942-2.21h-.042l-.826-.584q-.412-.333-.826-.625h-.083a.643.643,0,0,1-.165-.125,10.789,10.789,0,0,1-1.488-.959l-4.917-3.252h-.042q-6.818,2.543-7.563,2.96a8.1,8.1,0,0,0-4.668,6.17,10.1,10.1,0,0,0,.04,2.043l.413,1.918.826,1.835a12.439,12.439,0,0,0,1.115,1.751q.538.626,1.158,1.251a16.125,16.125,0,0,0,8.6,4.586q6.281,1.334,15.828-.751Q1571.763,1058.6,1574.862,1057.9Z" transform="translate(-1247.098 -656.858)" fill="#595959" fill-rule="evenodd"/>
    <path id="Path_2395" data-name="Path 2395" d="M1549.569,1052.913a7.934,7.934,0,0,0-1.942,2.21l-.662,2.543.662,2.919c.137.305.3.639.5,1q2.644,5.337,7.851,4.837-.288-.917-.537-1.626l-.827-3c-.055-.279-.1-.515-.124-.709a7.178,7.178,0,0,0-.207-.75l-.66-4.794Zm12.646,7.589q-1.489-.751-3.1-1.626l1.281,4.878a5.378,5.378,0,0,0,2.19,1.794q3.431,1.584,7.481-.959h-.042Q1568.5,1063.628,1562.215,1060.5Z" transform="translate(-1236.435 -666.427)" fill="#f18d69" fill-rule="evenodd"/>
    <path id="Path_2396" data-name="Path 2396" d="M1490.051,705.115l-.207-.042q-2.065-.375-1.156,1.876l22.769,57.162a4.065,4.065,0,0,0,2.728,2.585.905.905,0,0,1,.289.041l72.814,12.967a.783.783,0,0,0,.249.042q.743.084.991-.209.332-.333.042-1.167a.123.123,0,0,0-.042-.084,2.3,2.3,0,0,0-.124-.417l-22.769-57.162a3.893,3.893,0,0,0-2.975-2.627Zm58.061,37.816a7.078,7.078,0,0,1-.909,6.546,6.85,6.85,0,0,1-5.909,2.71,12.321,12.321,0,0,1-7.521-2.71,12.482,12.482,0,0,1-4.3-5.67,8.215,8.215,0,0,1-.289-.875,7.345,7.345,0,0,1,.289-5.5,3.643,3.643,0,0,1,.578-1,7.079,7.079,0,0,1,5.992-2.71,11.978,11.978,0,0,1,7.439,2.71A12.338,12.338,0,0,1,1548.112,742.931Z" transform="translate(-1233.78 -446.169)" fill="#aac5fc" fill-rule="evenodd"/>
    <path id="Path_2397" data-name="Path 2397" d="M1539.732,766.423l-19.3-48.448a4,4,0,0,0-2.975-2.71l-34.8-6.212-7.232-1.251-30.787-5.546q-1.613-.25-1.406,1.084l72.609,12.966a3.893,3.893,0,0,1,2.975,2.627l22.769,57.162a2.3,2.3,0,0,1,.124.417h.166q1.734.333,1.4-1.167c-.055-.194-.124-.417-.207-.667Zm18.556,23.39-6.778-5.379-6.488-5.086a8.3,8.3,0,0,0-3.306-1.585c-.165.195-.5.265-.991.209a.786.786,0,0,1-.249-.041l-72.814-12.967a.907.907,0,0,0-.289-.041,2.33,2.33,0,0,0,.7.667l2.148,1.75,70.294,12.508h.04a7.756,7.756,0,0,1,2.935,1.167l.661.5,10.538,8.3q1.818-.041,3.635.041ZM1501.3,741.157a12.333,12.333,0,0,0-4.628-6.5,11.979,11.979,0,0,0-7.438-2.71,7.079,7.079,0,0,0-5.992,2.71,3.639,3.639,0,0,0-.578,1,7.344,7.344,0,0,0-.289,5.5,8.224,8.224,0,0,0,.289.875,12.483,12.483,0,0,0,4.3,5.67,12.321,12.321,0,0,0,7.521,2.71,6.849,6.849,0,0,0,5.909-2.71A7.076,7.076,0,0,0,1501.3,741.157Z" transform="translate(-1186.968 -444.395)" fill="#cedefe" fill-rule="evenodd"/>
    <path id="Path_2398" data-name="Path 2398" d="M1498.387,912.261l20.207,3.585q.5-1.46,1.157-2.919a19.63,19.63,0,0,1,10.909-10.548l5.538-.751q2.521-.292,5.166-.375l-10.538-8.3c-.221-.166-.441-.333-.662-.5a7.761,7.761,0,0,0-2.934-1.167h-.04L1456.9,878.781l-2.479-.458q-2.106-.375-.538.875l5.372,4.211,7.729,6.129.123.083.042.042h.042q2.521,1.375,9.67,4.294,12.645,5.337,17.274,11.633Q1495.949,908.216,1498.387,912.261Z" transform="translate(-1173.64 -555.836)" fill="#73a4de" fill-rule="evenodd"/>
    <path id="Path_2399" data-name="Path 2399" d="M1173.31,1106.147v1.293a15.716,15.716,0,0,0,8.223,2.96,43.592,43.592,0,0,0,12.6-.25,17.334,17.334,0,0,0,7.025-3v-33.438q-.165.417-1.281.834a11.972,11.972,0,0,1-1.694.5q-.62.126-1.075.25a53.9,53.9,0,0,1-9.918.792,69.636,69.636,0,0,1-7.686-.375q-1.116-.125-2.148-.291c-.414-.083-.786-.167-1.115-.25a6.066,6.066,0,0,1-.827-.208q-1.818-.5-2.108-1v32.188Z" transform="translate(-731.656 -679.593)" fill="#8faed0" fill-rule="evenodd"/>
    <path id="Path_2400" data-name="Path 2400" d="M1191.541,1162.167v.958a17.336,17.336,0,0,1-7.025,3,43.588,43.588,0,0,1-12.6.25,15.713,15.713,0,0,1-8.223-2.96v-1.293a.366.366,0,0,1-.165.042q-5.787,1.042-5.786,2.668v.292q.535.917,4.173,1.75.7.168,1.613.375a93.336,93.336,0,0,0,13.885.875,79.333,79.333,0,0,0,14.092-1.083,14.916,14.916,0,0,1,1.529-.292q3.843-.917,4.174-1.918v-.208Q1197.2,1163.209,1191.541,1162.167Z" transform="translate(-722.034 -735.571)" fill="#d4576a" fill-rule="evenodd"/>
    <path id="Path_2401" data-name="Path 2401" d="M914.823,537.246a7.768,7.768,0,0,0-1.694,5.129,10.493,10.493,0,0,0,.083,1.5,10.175,10.175,0,0,0,.7,2.835q1.859,3.961,7.149,3.961a7.279,7.279,0,0,0,6.323-3.168.485.485,0,0,1,.083-.125,8.935,8.935,0,0,0,1.653-5.128,7.705,7.705,0,0,0-1.736-5.17,10.436,10.436,0,0,0-.785-.792,11.223,11.223,0,0,0-1.322-.917,8.014,8.014,0,0,0-4.132-1.042,7.744,7.744,0,0,0-5.5,2.043A8.208,8.208,0,0,0,914.823,537.246Zm-26.365-37.357a5.98,5.98,0,0,0-1.984.959,4.081,4.081,0,0,0-.909.626,7.2,7.2,0,0,0-2.273,3.794q-.041.376-.124.834a11.149,11.149,0,0,0-.083,1.376,10.5,10.5,0,0,0,.083,1.5,7.677,7.677,0,0,0,.744,2.835q1.736,3.711,6.571,3.961h.661a7.289,7.289,0,0,0,6.364-3.21,8.887,8.887,0,0,0,1.736-5.212,8.216,8.216,0,0,0-.29-2.209.321.321,0,0,0-.041-.125,6.948,6.948,0,0,0-2.19-3.544,10.579,10.579,0,0,0-1.653-1.084,8.182,8.182,0,0,0-3.884-.917A8.5,8.5,0,0,0,888.457,499.889Zm13.679,2.418-.413.333a7.036,7.036,0,0,0-1.612,2.085,8.38,8.38,0,0,0-.868,3.919,10.124,10.124,0,0,0,.083,1.459,9.383,9.383,0,0,0,.744,2.877,7.871,7.871,0,0,0,1.322,1.918,8.052,8.052,0,0,0,5.909,2.043,7.252,7.252,0,0,0,6.364-3.169,8.7,8.7,0,0,0,1.736-5.253,7.354,7.354,0,0,0-2.521-5.879,8.8,8.8,0,0,0-10.744-.334Zm10.29-14.051a8.854,8.854,0,0,0,1.818-5.378A7.431,7.431,0,0,0,911.723,477a8.79,8.79,0,0,0-11.116.042,7.576,7.576,0,0,0-2.521,6,12.338,12.338,0,0,0,.083,1.5,8.914,8.914,0,0,0,.827,2.793q1.943,4,7.149,4A7.37,7.37,0,0,0,912.426,488.256Zm-14.3,62.791q-.041-.668-.041-1.334a5.624,5.624,0,0,1,1.777-4.294,5.959,5.959,0,0,1,2.727-1.459,3.872,3.872,0,0,0,.041-.543,8.463,8.463,0,0,0-.827-3.878,5.731,5.731,0,0,0-1.694-2.126,6.586,6.586,0,0,0-3.223-1.459,12.619,12.619,0,0,0-2.315-.125,9.763,9.763,0,0,0-3.719,1.042,9.116,9.116,0,0,0-1.86,1.251q-.372.333-.7.667a6.628,6.628,0,0,0-1.116,1.584,7.2,7.2,0,0,0-.7,3.169,10.073,10.073,0,0,0,.083,1.459,8.692,8.692,0,0,0,.785,2.877,6.6,6.6,0,0,0,4.877,3.753,12.141,12.141,0,0,0,2.314.208A7.877,7.877,0,0,0,898.128,551.047Zm-.289,17.553a6.412,6.412,0,0,1,.248,1.835,5.784,5.784,0,0,1-1.074,3.377.8.8,0,0,1,.041.25,9.673,9.673,0,0,0,.7,2.793,6.829,6.829,0,0,0,.91,1.5.037.037,0,0,1,.041.042q2.025,2.46,6.2,2.46a7.593,7.593,0,0,0,6.405-3.127,13.5,13.5,0,0,0,1.033-1.793,8.3,8.3,0,0,0,.785-3.5,7.48,7.48,0,0,0-2.521-5.921,8.291,8.291,0,0,0-5.538-1.96,8.047,8.047,0,0,0-5.579,2A7.684,7.684,0,0,0,897.838,568.6Zm-27.357-92.393a8.047,8.047,0,0,0-5.579,2,7.575,7.575,0,0,0-2.52,6,11.871,11.871,0,0,0,.083,1.459,10.226,10.226,0,0,0,.785,2.836q1.942,4,7.19,4a7.373,7.373,0,0,0,6.281-3.168,8.859,8.859,0,0,0,1.818-5.3,7.431,7.431,0,0,0-2.521-5.879A8.287,8.287,0,0,0,870.481,476.207Zm13.389,61.331a6.064,6.064,0,0,1-1.943.292,5.222,5.222,0,0,1-5.248-3.169q-.372-2-.537-2.543a8.308,8.308,0,0,0-5.455,1.835.475.475,0,0,0-.124.083,7.114,7.114,0,0,0-1.819,2.377q-.206.125-.455.292c-.137.083-.289.167-.455.25V537a6.664,6.664,0,0,0-.7.542,7.636,7.636,0,0,0-2.479,6,10.126,10.126,0,0,0,.083,1.459,9.379,9.379,0,0,0,.744,2.877q1.86,3.961,7.232,3.961a7.294,7.294,0,0,0,5.91-2.627,3.529,3.529,0,0,0,.5-.625q.331-.542.62-1.084a7.539,7.539,0,0,0,2.769-2.377,8.972,8.972,0,0,0,1.694-5.254v-.041q0-.5-.041-1A5.921,5.921,0,0,0,883.871,537.538Zm17.852,64.25a1.364,1.364,0,0,0-.206.167,5.493,5.493,0,0,1-1.158,3.377,5.109,5.109,0,0,1-2.149,1.752,8.933,8.933,0,0,0-.124,1.542,11.971,11.971,0,0,0,.083,1.46,9.416,9.416,0,0,0,.827,2.836q1.943,4,7.149,4a7.545,7.545,0,0,0,5.207-1.876,15.415,15.415,0,0,0,1.033-1.251l.041-.041a8.739,8.739,0,0,0,1.818-5.3,7.429,7.429,0,0,0-2.521-5.879,7.981,7.981,0,0,0-4.339-1.876,9.008,9.008,0,0,0-5.66,1.083Z" transform="translate(-346.55 -300.565)" fill="#6ecc00" fill-rule="evenodd"/>
    <path id="Path_2402" data-name="Path 2402" d="M920.35,564.1a5.959,5.959,0,0,0-2.727,1.459,5.625,5.625,0,0,0-1.777,4.294q0,.667.042,1.334a8.332,8.332,0,0,0,.578,2.209,4.93,4.93,0,0,0,5.042,3.127,5.137,5.137,0,0,0,4.711-2.5,7.5,7.5,0,0,0,1.116-4.044,5.992,5.992,0,0,0-1.818-4.711,5.12,5.12,0,0,0-3.926-1.334A9.381,9.381,0,0,0,920.35,564.1Zm-5.579,29.852a5.784,5.784,0,0,0,1.074-3.377,6.41,6.41,0,0,0-.248-1.835,4.821,4.821,0,0,0-1.736-2.585,6.149,6.149,0,0,0-3.884-1.459,3.026,3.026,0,0,0-.5-.041,7.223,7.223,0,0,0-2.728.5,6.283,6.283,0,0,0-1.653,1,5.371,5.371,0,0,0-2.024,4.42,13.055,13.055,0,0,1,.578,2.585q1.488,3.294,5.785,3.294a7.2,7.2,0,0,0,3.431-.751,5.654,5.654,0,0,0,1.86-1.667A.12.12,0,0,0,914.771,593.957Zm19.547,15.218a6.079,6.079,0,0,0,1.116-3.586,5.53,5.53,0,0,0-1.819-4.336,5.694,5.694,0,0,0-3.967-1.459,5.788,5.788,0,0,0-3.967,1.459,5.591,5.591,0,0,0-1.777,4.336q0-.209.62,2.752a5.026,5.026,0,0,0,5.042,3.085A5.405,5.405,0,0,0,934.318,609.175Zm-27.6-100.857a8.536,8.536,0,0,0-9.546,0,5.069,5.069,0,0,0-2.19,4.336q0-.359.785,2.5,1.736,3.336,6.2,3.335,4.133,0,5.827-2.293a5.552,5.552,0,0,0,1.116-3.544A5.065,5.065,0,0,0,906.713,508.318Zm9.339,47.322q.454.042.951.042a8.9,8.9,0,0,0,2.934-.459,7.252,7.252,0,0,0,3.388-2.668,10.574,10.574,0,0,0,.7-1.126,8.658,8.658,0,0,0,1.033-4.169,7.353,7.353,0,0,0-2.521-5.879,7.436,7.436,0,0,0-3.884-1.834A8.344,8.344,0,0,0,917,539.38a8.2,8.2,0,0,0-5.62,2,7.635,7.635,0,0,0-2.48,6,10.718,10.718,0,0,0,.083,1.459v.292a7.817,7.817,0,0,0,.744,2.585Q911.465,555.307,916.052,555.641Zm-22.15-3.377q.165.542.537,2.543a5.222,5.222,0,0,0,5.248,3.169,6.076,6.076,0,0,0,1.943-.292,5.546,5.546,0,0,0,.992-.5,6.348,6.348,0,0,0,1.612-1.5,6.145,6.145,0,0,0,1.24-3.586,6.77,6.77,0,0,0-.372-2.293,5.218,5.218,0,0,0-1.447-2.042,5.444,5.444,0,0,0-2.934-1.376,6.2,6.2,0,0,0-1.033-.083,5.749,5.749,0,0,0-4.008,1.459,5.61,5.61,0,0,0-1.818,4.044v.291Zm21.737,64.375a6.439,6.439,0,0,0-2.686-.543,6.616,6.616,0,0,0-4.339,1.459,5.325,5.325,0,0,0-1.983,4.336q0-.208.537,2.752,1.488,3.086,5.7,3.086a8.553,8.553,0,0,0,3.1-.5,5.114,5.114,0,0,0,2.149-1.752,5.492,5.492,0,0,0,1.157-3.377v-.542a5.2,5.2,0,0,0-2.025-4A5.426,5.426,0,0,0,915.639,616.639Zm8.885,27.268a6.6,6.6,0,0,0-4.422,1.542,5.531,5.531,0,0,0-1.984,4.461,17.437,17.437,0,0,1,.578,2.585q1.488,3.169,5.786,3.169a5.981,5.981,0,0,0,5.083-2.293,5.394,5.394,0,0,0,1.323-3.461,5.531,5.531,0,0,0-1.984-4.461A6.449,6.449,0,0,0,924.524,643.906Z" transform="translate(-364.31 -320.711)" fill="#549c00" fill-rule="evenodd"/>
    <path id="Path_2403" data-name="Path 2403" d="M971.427,545.044a3.9,3.9,0,0,0-.5-.333,13.68,13.68,0,0,0-4.174-1.209q-1.116-.209-2.4-.375a10.574,10.574,0,0,1,1.653,1.084,6.948,6.948,0,0,1,2.19,3.544.673.673,0,0,1,.207-.041q.537-.126.992-.251a7.036,7.036,0,0,1,1.612-2.085Zm-34.837.792q.29.959,3.761,1.751.744.167,1.364.292a69.168,69.168,0,0,0,10.744.959q.083-.458.124-.834a39.019,39.019,0,0,1-6.943-.75q-.992-.167-1.57-.292-2.025-.5-2.19-1.251.165-.792,3.76-1.626a53.066,53.066,0,0,1,8.719-.584l1.405.083a5.968,5.968,0,0,1,1.984-.959q-1.611-.084-3.389-.084a72,72,0,0,0-12.645.959q-5.125.917-5.124,2.209Z" transform="translate(-415.841 -343.303)" fill="#a6ace0" fill-rule="evenodd"/>
    <path id="Path_2404" data-name="Path 2404" d="M993.547,545.24l-1.405-.083a53.058,53.058,0,0,0-8.719.584q-3.6.834-3.76,1.626.165.751,2.19,1.251.579.126,1.57.292a39.024,39.024,0,0,0,6.943.75,7.2,7.2,0,0,1,2.273-3.794A4.109,4.109,0,0,1,993.547,545.24Z" transform="translate(-453.623 -344.958)" fill="#264376" fill-rule="evenodd"/>
    <path id="Path_2405" data-name="Path 2405" d="M954.507,554.523a69.265,69.265,0,0,1-10.744-.959q-.62-.125-1.364-.292-3.472-.792-3.761-1.751l3.224,29.561.124,1.167.041.125a8.309,8.309,0,0,1,5.455-1.835l-.041-.167v-.291a5.609,5.609,0,0,1,1.818-4.044,5.75,5.75,0,0,1,4.008-1.459,6.206,6.206,0,0,1,1.033.083,5.45,5.45,0,0,1,2.934,1.376,5.227,5.227,0,0,1,1.447,2.042,6.773,6.773,0,0,1,.372,2.293,6.144,6.144,0,0,1-1.24,3.586,6.349,6.349,0,0,1-1.612,1.5h.206q3.141,0,5.785-.167a9.756,9.756,0,0,1,3.719-1.042,12.687,12.687,0,0,1,2.315.125,9.258,9.258,0,0,0,1.4-.459q-4.587-.334-6.323-3.919a7.821,7.821,0,0,1-.744-2.585v-.292a10.723,10.723,0,0,1-.083-1.459,7.635,7.635,0,0,1,2.48-6,8.2,8.2,0,0,1,5.62-2,8.306,8.306,0,0,1,1.653.167l.5-4.5a7.873,7.873,0,0,1-1.322-1.918,9.378,9.378,0,0,1-.744-2.877,10.183,10.183,0,0,1-.083-1.459,8.378,8.378,0,0,1,.868-3.919q-.454.126-.992.251a.682.682,0,0,0-.206.042.319.319,0,0,1,.042.125,8.218,8.218,0,0,1,.289,2.209,8.888,8.888,0,0,1-1.736,5.212,7.288,7.288,0,0,1-6.364,3.21h-.661q-4.835-.25-6.571-3.961a7.676,7.676,0,0,1-.744-2.835,10.507,10.507,0,0,1-.083-1.5A11.3,11.3,0,0,1,954.507,554.523Z" transform="translate(-417.888 -348.988)" fill="#345ba7" fill-rule="evenodd"/>
    <path id="Path_2406" data-name="Path 2406" d="M1197.584,935.321a3.685,3.685,0,0,0,.62.709l.124.125a6.913,6.913,0,0,0,4.876,2,6.732,6.732,0,0,0,4.959-2.085.121.121,0,0,1,.083-.042,7.912,7.912,0,0,0,.661-.751,6.872,6.872,0,0,0,1.364-4.211q.082-10.8-6.364-17.47a11.372,11.372,0,0,0-5.7-3.627q-5.249-2.461-6.86-6.546-1.034-3.294.041-5.378a25.2,25.2,0,0,1,4.628-4.92h.083q2.769-1.96,9.339-5.837a20.865,20.865,0,0,0,10.786-18.011,18.588,18.588,0,0,0-1.364-8.881q-.331-.791-.744-1.583h-21.655q1.737,1.25,3.679,2.459l1.653,1,.041.042q4.174,2.336,4.257,6.254a7.477,7.477,0,0,1-3.844,6.421q-2.066,1.251-3.76,2.252-4.216,2.584-6.365,4.086l-.04.041c-.167.11-.331.222-.5.333a36.349,36.349,0,0,0-7.439,7.672,18.568,18.568,0,0,0-1.531,2.21q-3.719,6.5-.784,16.093v.041a20.918,20.918,0,0,0,6.447,10.09,33.03,33.03,0,0,0,9.007,5.545c.166.055.318.112.455.167a11.08,11.08,0,0,1,2.4,7.464A6.9,6.9,0,0,0,1197.584,935.321Z" transform="translate(-747.954 -543.539)" fill-rule="evenodd" fill="url(#linear-gradient)"/>
  </g>
</svg>
